<?xml version="1.0" encoding="UTF-8"?>
<svg width="44px" height="44px" viewBox="0 0 44 44" version="1.1" xmlns="http://www.w3.org/2000/svg" xmlns:xlink="http://www.w3.org/1999/xlink">
    <!-- Generator: Sketch 49.3 (51167) - http://www.bohemiancoding.com/sketch -->
    <title>Icon Cyber</title>
    <desc>Created with Sketch.</desc>
    <defs></defs>
    <g id="Icon-Cyber" stroke="none" stroke-width="1" fill="none" fill-rule="evenodd">
        <g id="Group-64-Copy" transform="translate(0.000000, 3.000000)" fill="#FAA000">
            <path d="M39.5322,24.3504 L37.7122,24.3504 L37.7122,3.2284 C37.7122,2.7364 37.2982,2.3564 36.7962,2.3564 L6.9962,2.3564 C6.4622,2.3564 6.0362,2.7364 6.0362,3.2284 L6.0362,24.3504 L4.2202,24.3504 L4.2202,3.2284 C4.2202,1.7264 5.4582,0.5364 6.9962,0.5364 L36.7962,0.5364 C38.2982,0.5364 39.5322,1.7264 39.5322,3.2284 L39.5322,24.3504 Z" id="Fill-618"></path>
            <path d="M42.6376,32.4968 C42.3296,32.4968 42.0336,32.3108 41.8516,31.9828 L38.1136,25.2328 L5.6696,25.2328 L1.8956,31.9828 C1.6736,32.4628 1.1096,32.5808 0.6716,32.3728 C0.2336,32.1068 0.1036,31.5848 0.3276,31.1048 L4.3416,23.8688 C4.5176,23.6008 4.8076,23.4408 5.1256,23.4408 L38.6216,23.4408 C38.9416,23.4408 39.2756,23.6008 39.4056,23.8688 L43.4216,31.1048 C43.6876,31.5848 43.5136,32.1068 43.0776,32.3728 C42.9676,32.4548 42.8016,32.4968 42.6376,32.4968" id="Fill-619"></path>
            <path d="M40.3134,37.3796 L3.4354,37.3796 C1.6794,37.3796 0.2014,35.8596 0.2014,34.1456 L0.2014,31.5876 C0.2014,31.0356 0.6054,30.6756 1.1114,30.6756 C1.6194,30.6756 2.0214,31.0356 2.0214,31.5876 L2.0214,34.1456 C2.0214,34.9336 2.6474,35.5596 3.4354,35.5596 L40.3134,35.5596 C41.1014,35.5596 41.7714,34.9336 41.7714,34.1456 L41.7714,31.5876 C41.7714,31.0356 42.1734,30.6756 42.6374,30.6756 C43.1434,30.6756 43.5454,31.0356 43.5454,31.5876 L43.5454,34.1456 C43.5454,35.8596 42.1134,37.3796 40.3134,37.3796" id="Fill-620"></path>
            <polygon id="Fill-621" points="9.364 29.316 34.24 29.316 34.24 27.502 9.364 27.502"></polygon>
            <polygon id="Fill-622" points="18.722 32.496 24.88 32.496 24.88 30.676 18.722 30.676"></polygon>
            <path d="M9.952,19.482 L33.798,19.482 L33.798,6.42 L9.952,6.42 L9.952,19.482 Z M34.708,21.214 L9.084,21.214 C8.578,21.214 8.174,20.854 8.174,20.334 L8.174,5.508 C8.174,4.958 8.578,4.598 9.084,4.598 L34.708,4.598 C35.216,4.598 35.618,4.958 35.618,5.508 L35.618,20.334 C35.618,20.854 35.216,21.214 34.708,21.214 L34.708,21.214 Z" id="Fill-623"></path>
        </g>
    </g>
</svg>